<?xml version="1.0" standalone="no"?>
<!DOCTYPE svg PUBLIC "-//W3C//DTD SVG 20010904//EN"
 "http://www.w3.org/TR/2001/REC-SVG-20010904/DTD/svg10.dtd">
<svg version="1.0" xmlns="http://www.w3.org/2000/svg"
 width="269.000000pt" height="269.000000pt" viewBox="0 0 269.000000 269.000000"
 preserveAspectRatio="xMidYMid meet">
<metadata>
Created by potrace 1.11, written by Peter Selinger 2001-2013
</metadata>
<g transform="translate(0.000000,269.000000) scale(0.100000,-0.100000)"
fill="#000000" stroke="none">
<path d="M1397 2624 c-1 -1 -38 -4 -82 -7 -145 -10 -253 -38 -360 -94 -41 -22
-364 -282 -493 -398 -53 -47 -109 -140 -139 -228 l-28 -82 -3 -535 c-2 -331 1
-564 7 -612 22 -162 86 -295 197 -405 105 -104 235 -161 419 -182 106 -12 892
-11 928 2 36 12 440 346 459 379 19 34 21 473 2 510 -32 62 -33 62 -418 63
-193 1 -366 5 -383 9 -18 4 -43 20 -56 36 -24 28 -24 29 -24 299 -1 196 2 271
11 272 6 1 99 2 206 3 143 2 202 6 220 16 14 7 77 56 140 109 63 53 124 103
135 112 112 92 166 145 173 167 13 48 8 484 -6 509 -30 53 -41 54 -489 56
-228 1 -415 1 -416 1z m843 -49 c19 -10 32 -27 38 -47 4 -17 7 -127 7 -245
l-1 -214 -27 -26 -26 -27 -364 -1 -364 -1 -46 -27 c-36 -21 -48 -36 -57 -65
-6 -22 -10 -188 -10 -425 0 -409 1 -419 46 -458 37 -32 103 -37 445 -37 376
-1 380 -1 397 -63 4 -17 7 -126 7 -241 l-1 -209 -27 -27 -27 -27 -443 0 c-509
0 -562 3 -697 46 -219 69 -330 201 -375 444 -8 42 -8 1099 0 1160 36 286 226
460 540 492 27 3 52 7 54 9 2 2 206 3 452 4 385 0 454 -2 479 -15z"/>
<path d="M1385 2318 c-108 -10 -207 -41 -251 -80 -44 -38 -79 -107 -93 -179
-16 -85 -14 -1040 3 -1110 25 -107 85 -181 170 -209 103 -34 151 -38 472 -39
287 -2 324 0 324 13 0 9 -6 16 -12 17 -7 0 -152 1 -323 3 -208 2 -331 7 -373
16 -87 18 -161 64 -191 119 -46 84 -48 114 -46 656 1 281 5 519 8 531 23 89
70 154 132 183 89 42 159 49 489 50 285 2 361 8 312 27 -24 9 -523 11 -621 2z"/>
</g>
</svg>
